{"title":"General.Hospital.S54E105.720p.HDTV.x264-TheRealTTL","uid":15725228,"size":1166447508,"categoryP":"video","categoryS":"hd___tv_shows","magnet":"?xt=urn:btih:1632f5e31f730308895682e4a4fca051b1eac158&amp;dn=General.Hospital.S54E105.720p.HDTV.x264-TheRealTTL&amp;tr=udp%3A%2F%2Ftracker.leechers-paradise.org%3A6969&amp;tr=udp%3A%2F%2Fzer0day.ch%3A1337&amp;tr=udp%3A%2F%2Fopen.demonii.com%3A1337&amp;tr=udp%3A%2F%2Ftracker.coppersurfer.tk%3A6969&amp;tr=udp%3A%2F%2Fexodus.desync.com%3A6969","seeders":0,"leechers":0,"uploader":"thetorrentlord","files":2,"time":1472707668,"description":"General.Hospital.S54E105.720p.HDTV.x264-TheRealTTL.mkv\r\nFormat                           : Matroska\r\nFile size                        : 1.06 GiB\r\nDuration                         : 36mn 9s\r\nOverall bit rate                 : 4 181 Kbps\r\nMovie name                       : General.Hospital.S54E105.720p.HDTV.x264-TheRealTTL\r\nEncoded date                     : UTC 2016-09-01 00:44:04\r\nWriting application              : mkvmerge v3.3.0 ('Language') built on Mar 24 2010 14:59:24\r\nWriting library                  : libebml v0.8.0 + libmatroska v0.9.0\r\n\r\nVideo\r\nID                               : 1\r\nFormat                           : AVC\r\nFormat/Info                      : Advanced Video Codec\r\nFormat profile                   :   \r\nFormat settings, CABAC           : Yes\r\nFormat settings, ReFrames        : 4 frames\r\nMuxing mode                      : Container   \r\nCodec ID                         : V_MPEG4/ISO/AVC\r\nDuration                         : 36mn 7s\r\nBit rate                         : 3 778 Kbps\r\nNominal bit rate                 : 3 859 Kbps\r\nWidth                            : 1 280 pixels\r\nHeight                           : 720 pixels\r\nDisplay aspect ratio             : 16:9\r\nFrame rate mode                  : Variable\r\nFrame rate                       : 29.970 fps\r\nResolution                       : 8 bits\r\nColorimetry                      : 4:2:0\r\nScan type                        : Progressive\r\nBits/(Pixel*Frame)               : 0.137\r\nStream size                      : 976 MiB (90%)\r\nTitle                            : General.Hospital.S54E105.720p.HDTV.x264-TheRealTTL\r\nWriting library                  : x264 core 142 r2479 dd79a61\r\nEncoding settings                : cabac=1 / ref=1 / deblock=1:0:0 / analyse=0x1:0x111 / me=hex / subme=2 / psy=1 / psy_rd=1.00:0.00 / mixed_ref=0 / me_range=16 / chroma_me=1 / trellis=0 / 8x8dct=0 / cqm=0 / deadzone=21,11 / fast_pskip=1 / chroma_qp_offset=0 / threads=12 / lookahead_threads=4 / sliced_threads=0 / nr=0 / decimate=1 / interlaced=0 / bluray_compat=0 / constrained_intra=0 / bframes=3 / b_pyramid=2 / b_adapt=1 / b_bias=0 / direct=1 / weightb=1 / open_gop=0 / weightp=1 / keyint=300 / keyint_min=30 / scenecut=40 / intra_refresh=0 / rc_lookahead=10 / rc=2pass / mbtree=1 / bitrate=3859 / ratetol=1.0 / qcomp=0.60 / qpmin=0 / qpmax=69 / qpstep=4 / cplxblur=20.0 / qblur=0.5 / vbv_maxrate=20000 / vbv_bufsize=25000 / nal_hrd=none / filler=0 / ip_ratio=1.40 / aq=1:1.00\r\nLanguage                         : English\r\nColor primaries                  : BT.709-5, BT.1361, IEC 61966-2-4, SMPTE RP177\r\nTransfer characteristics         : BT.709-5, BT.1361\r\nMatrix coefficients              : BT.709-5, BT.1361, IEC 61966-2-4 709, SMPTE RP177\r\n\r\nAudio\r\nID                               : 2\r\nFormat                           : AC-3\r\nFormat/Info                      : Audio Coding 3\r\nCodec ID                         : A_AC3\r\nDuration                         : 36mn 9s\r\nBit rate mode                    : Constant\r\nBit rate                         : 320 Kbps\r\nChannel(s)                       : 2 channels\r\nChannel positions                : L R\r\nSampling rate                    : 48.0 KHz\r\nVideo delay                      : -5ms\r\nStream size                      : 82.8 MiB (8%)\r\nTitle                            : General.Hospital.S54E105.720p.HDTV.x264-TheRealTTL\r\nLanguage                         : English\r\n\r\nMenu\r\n00:00:00.000                     : :Chapter 1\r\n00:05:00.000                     : :Chapter 2\r\n00:10:00.000                     : :Chapter 3\r\n00:15:00.000                     : :Chapter 4\r\n00:20:00.000                     : :Chapter 5\r\n00:25:00.000                     : :Chapter 6\r\n00:30:00.000                     : :Chapter 7\r\n00:35:00.000                     : :Chapter 8","torrent":{"xt":"urn:btih:1632f5e31f730308895682e4a4fca051b1eac158","amp;dn":"General.Hospital.S54E105.720p.HDTV.x264-TheRealTTL","amp;tr":["udp%3A%2F%2Ftracker.leechers-paradise.org%3A6969","udp%3A%2F%2Fzer0day.ch%3A1337","udp%3A%2F%2Fopen.demonii.com%3A1337","udp%3A%2F%2Ftracker.coppersurfer.tk%3A6969","udp%3A%2F%2Fexodus.desync.com%3A6969"],"infoHash":"1632f5e31f730308895682e4a4fca051b1eac158","infoHashBuffer":{"type":"Buffer","data":[22,50,245,227,31,115,3,8,137,86,130,228,164,252,160,81,177,234,193,88]},"announce":[],"urlList":[]}}